# xmcd CD database file
#
# Track frame offsets:
#	150
#	23143
#	45178
#	72016
#	98277
#
# Disc length: 1642 seconds
#
# Revision: 0
# Processed by: cddbd v1.5.2PL0 Copyright (c) Steve Scherf et al.
# Submitted via: CDex 1.51
#
DISCID=29066805
DTITLE=complicated protocol - firewall
DYEAR=2009
DGENRE=Jazz
TTITLE0=firewall
TTITLE1=nu Bo$$a
TTITLE2=Fragmentation
TTITLE3=D-Jungle P03
TTITLE4=CHROMA#4
EXTD=YEAR: 2009
EXTT0=
EXTT1=
EXTT2=
EXTT3=
EXTT4=
PLAYORDER=
